<svg width="13" height="15" viewBox="0 0 13 15" fill="none" xmlns="http://www.w3.org/2000/svg">
<path d="M7.30234 14.6629C9.03906 12.7772 13 8.20679 13 5.63959C13 2.52607 10.0885 0 6.5 0C2.91146 0 0 2.52607 0 5.63959C0 8.20679 3.96094 12.7772 5.69766 14.6629C6.11406 15.1124 6.88594 15.1124 7.30234 14.6629ZM6.5 3.75973C7.07464 3.75973 7.62574 3.95779 8.03207 4.31033C8.43839 4.66287 8.66667 5.14102 8.66667 5.63959C8.66667 6.13817 8.43839 6.61632 8.03207 6.96886C7.62574 7.3214 7.07464 7.51946 6.5 7.51946C5.92536 7.51946 5.37426 7.3214 4.96794 6.96886C4.56161 6.61632 4.33333 6.13817 4.33333 5.63959C4.33333 5.14102 4.56161 4.66287 4.96794 4.31033C5.37426 3.95779 5.92536 3.75973 6.5 3.75973Z" fill="#00C2FF" fill-opacity="0.75"/>
</svg>
